Coordinates
version=1
nRows=7
nColumns=42
inDegrees=yes

Units are S.I. units (second, meters, Newtons, ...)
If the header above contains a line with 'inDegrees', this indicates whether rotational values are in degrees (yes) or radians (no).

endheader
time	pelvis_tilt	pelvis_list	pelvis_rotation	pelvis_tx	pelvis_ty	pelvis_tz	hip_flexion_r	hip_adduction_r	hip_rotation_r	knee_angle_r	knee_adduction_r	knee_angle_r_beta	ankle_angle_r	subtalar_angle_r	mtp_angle_r	hip_flexion_l	hip_adduction_l	hip_rotation_l	knee_angle_l	knee_adduction_l	knee_angle_l_beta	ankle_angle_l	subtalar_angle_l	mtp_angle_l	lumbar_extension	lumbar_bending	lumbar_rotation	arm_flex_r	arm_add_r	arm_rot_r	elbow_flex_r	pro_sup_r	wrist_flex_r	wrist_dev_r	arm_flex_l	arm_add_l	arm_rot_l	elbow_flex_l	pro_sup_l	wrist_flex_l	wrist_dev_l
      0.78000000	      5.61703881	     -0.84774720	      7.35462058	     -0.74597355	      0.84372109	      0.17469974	      0.41352155	      6.88991956	      0.14172091	     59.97620404	      2.22913769	      1.04678223	     14.08707344	    -17.94834309	     -7.79927571	     28.05739896	      8.25427571	     -4.90987788	     40.84814090	     -9.04662646	      0.71293455	     12.34445593	    -18.30615262	     -7.79927571	    -32.57943552	      2.71775639	     -2.79320593	     19.32325775	     -9.80587809	      0.13838971	     45.87847177	     90.00000001	      0.00000000	      0.00000000	     11.44226126	     -6.86535749	    -23.59627739	     20.69067209	     90.00000001	      0.00000000	      0.00000000
      0.79000000	      5.24794205	     -0.66164874	      7.27191013	     -0.73769320	      0.84458229	      0.17366362	      2.35728704	      5.99522338	      1.46854057	     62.94635123	      3.75618148	      1.09862108	     12.83092068	    -18.14009166	     -7.79304673	     27.66808054	      8.40672636	     -5.60553423	     40.55974713	     -9.25845679	      0.70790113	     13.03761879	    -18.10921647	     -7.79304673	    -32.34563726	      2.44639879	     -2.96206839	     18.86102264	     -9.53005511	      0.09947572	     45.56302460	     90.00000001	      0.00000000	      0.00000000	     11.92715192	     -6.97573579	    -23.42381775	     21.13029074	     90.00000001	      0.00000000	      0.00000000
      0.80000000	      4.99181041	     -0.45257541	      7.18852317	     -0.72940144	      0.84558807	      0.17260771	      4.18526453	      5.07643116	      2.19846601	     65.57398181	      4.74780684	      1.14448189	     12.24924716	    -18.28001958	     -7.78812385	     27.10853807	      8.55705466	     -6.27313426	     40.20323089	     -9.41835178	      0.70167875	     13.78921723	    -17.92563896	     -7.78812385	    -32.25363345	      2.18283057	     -3.09027876	     18.32752486	     -9.33681980	      0.10893367	     45.26400843	     90.00000001	      0.00000000	      0.00000000	     12.47314092	     -7.07791485	    -23.24642372	     21.63463443	     90.00000001	      0.00000000	      0.00000000
      0.81000000	      4.59263873	     -0.35786064	      7.08944050	     -0.72136837	      0.84623020	      0.17168564	      6.26420030	      4.35811538	      3.09660133	     67.93448134	      5.72643767	      1.18568038	     11.98575301	    -18.47436168	     -7.78304071	     26.82449486	      8.59100002	     -6.83409289	     40.01690458	     -9.52575889	      0.69842674	     14.44643482	    -17.69172064	     -7.78304071	    -32.00497757	      2.02230526	     -3.18030806	     17.85191319	     -9.12314938	      0.12990215	     44.89545614	     90.00000001	      0.00000000	      0.00000000	     12.99430242	     -7.16288172	    -23.02844460	     22.17076058	     90.00000001	      0.00000000	      0.00000000
      0.82000000	      4.05007886	     -0.38568933	      6.96993010	     -0.71362071	      0.84652843	      0.17091435	      8.56391250	      3.83359192	      4.52513426	     69.95140871	      7.09527994	      1.22088240	     12.15636695	    -18.72077231	     -7.77430615	     26.84619339	      8.47530012	     -7.23344461	     40.06589061	     -9.51579005	      0.69928171	     14.95145909	    -17.48994989	     -7.77430615	    -31.61285452	      1.98997698	     -3.27573000	     17.51909572	     -8.85241419	      0.12589720	     44.23326989	     90.00000001	      0.00000000	      0.00000000	     13.41812972	     -7.26566448	    -22.58156589	     22.84992732	     90.00000001	      0.00000000	      0.00000000
      0.83000000	      3.71543536	     -0.33476893	      6.89074135	     -0.70576242	      0.84714854	      0.17006177	     10.57865581	      3.29275906	      5.23817200	     71.54109272	      7.73095579	      1.24862762	     12.74264922	    -18.86975506	     -7.75811084	     26.52319916	      8.49966344	     -7.50223456	     39.95406733	     -9.54301815	      0.69733002	     15.51991885	    -17.39128309	     -7.75811084	    -31.43705996	      1.91811880	     -3.38994304	     17.24636120	     -8.60123454	      0.07262579	     43.42943856	     90.00000001	      0.00000000	      0.00000000	     13.80358344	     -7.43118858	    -21.63405774	     23.71925572	     90.00000001	      0.00000000	      0.00000000
      0.84000000	      3.51162935	     -0.29384397	      6.85812227	     -0.69785682	      0.84791369	      0.16920373	     12.44680218	      2.83654768	      5.09565983	     72.73806179	      7.51383019	      1.26951867	     13.35001386	    -18.98533133	     -7.75421428	     26.06538735	      8.52001614	     -7.71967042	     39.87071129	     -9.59143522	      0.69587519	     16.12374939	    -17.22635953	     -7.75421428	    -31.41999029	      1.90169877	     -3.43583133	     16.73361877	     -8.48609858	      0.11542100	     43.12663586	     90.00000001	      0.00000000	      0.00000000	     14.49919021	     -7.52112522	    -21.38980516	     24.23157207	     90.00000001	      0.00000000	      0.00000000
